<svg width="24" height="24" viewBox="0 0 24 24" fill="none" xmlns="http://www.w3.org/2000/svg">
<path d="M12.8926 12.5914C12.7768 12.4848 12.639 12.4002 12.4871 12.3424C12.3352 12.2847 12.1723 12.255 12.0078 12.255C11.8433 12.255 11.6804 12.2847 11.5285 12.3424C11.3767 12.4002 11.2388 12.4848 11.123 12.5914L7.38426 16.0032C7.14297 16.2173 7.0048 16.5102 7.00012 16.8173C6.99545 17.1244 7.12466 17.4207 7.35933 17.6409C7.594 17.861 7.91491 17.9871 8.25146 17.9914C8.58801 17.9957 8.91264 17.8777 9.15392 17.6636L12.0078 15.0024L14.8617 17.6636C14.9776 17.7702 15.1154 17.8548 15.2673 17.9125C15.4191 17.9703 15.582 18 15.7465 18C15.9111 18 16.0739 17.9703 16.2258 17.9125C16.3777 17.8548 16.5155 17.7702 16.6314 17.6636C16.7482 17.5579 16.8409 17.4321 16.9042 17.2935C16.9674 17.1549 17 17.0063 17 16.8561C17 16.706 16.9674 16.5574 16.9042 16.4188C16.8409 16.2802 16.7482 16.1544 16.6314 16.0487L12.8926 12.5914ZM9.15392 11.3631L12.0078 8.74741L14.8617 11.3631C14.9776 11.4697 15.1154 11.5543 15.2673 11.6121C15.4191 11.6698 15.582 11.6995 15.7465 11.6995C15.9111 11.6995 16.0739 11.6698 16.2258 11.6121C16.3777 11.5543 16.5155 11.4697 16.6314 11.3631C16.7482 11.2574 16.8409 11.1316 16.9042 10.993C16.9674 10.8544 17 10.7058 17 10.5557C17 10.4055 16.9674 10.2569 16.9042 10.1183C16.8409 9.97971 16.7482 9.85393 16.6314 9.74821L12.8926 6.3364C12.7768 6.22981 12.639 6.1452 12.4871 6.08746C12.3352 6.02973 12.1723 6 12.0078 6C11.8433 6 11.6804 6.02973 11.5285 6.08746C11.3767 6.1452 11.2388 6.22981 11.123 6.3364L7.38426 9.74821C7.14958 9.96236 7.01775 10.2528 7.01775 10.5557C7.01775 10.8585 7.14958 11.149 7.38426 11.3631C7.61893 11.5773 7.93721 11.6976 8.26909 11.6976C8.60096 11.6976 8.91925 11.5773 9.15392 11.3631Z" fill="white"/>
</svg>
