<svg width="26" height="26" viewBox="0 0 26 26" fill="none" xmlns="http://www.w3.org/2000/svg">
<path d="M6.49999 12.7045C6.82633 12.7045 7.09088 12.44 7.09088 12.1136C7.09088 11.7873 6.82633 11.5227 6.49999 11.5227C6.17365 11.5227 5.9091 11.7873 5.9091 12.1136C5.9091 12.44 6.17365 12.7045 6.49999 12.7045Z" fill="#F26D29"/>
<path d="M3.54545 18.6136C3.87179 18.6136 4.13634 18.3491 4.13634 18.0227C4.13634 17.6964 3.87179 17.4318 3.54545 17.4318C3.21911 17.4318 2.95456 17.6964 2.95456 18.0227C2.95456 18.3491 3.21911 18.6136 3.54545 18.6136Z" fill="#F26D29"/>
<path d="M22.4546 14.4773H22.1591C22.8091 13.7682 23.1637 12.7637 23.0455 11.7591C22.8682 9.98638 21.2728 8.56821 19.3819 8.56821H16.6046C16.0137 8.56821 15.4819 8.27276 15.1864 7.80004L13.2955 5.14093C12.941 4.72727 12.3501 4.43182 11.8183 4.43182H10.991C10.1637 4.43182 9.45461 5.14093 9.45461 5.96821C9.45461 6.26366 9.51371 6.50004 9.69099 6.73638L10.8137 8.56821H6.5C4.55 8.56821 2.95455 10.1637 2.95455 12.1137C2.95455 13.0591 3.30911 13.8864 3.9 14.4773C3.78183 14.4773 3.66361 14.4773 3.54545 14.4773C1.59545 14.4773 0 16.0727 0 18.0227C0 19.9727 1.59545 21.5682 3.54545 21.5682H22.4546C24.4046 21.5682 26 19.9727 26 18.0227C26 16.0727 24.4046 14.4773 22.4546 14.4773ZM3.54545 20.3863C2.24545 20.3863 1.18183 19.3227 1.18183 18.0227C1.18183 16.7227 2.24545 15.6591 3.54545 15.6591C4.84545 15.6591 5.90906 16.7227 5.90906 18.0227C5.90911 19.3227 4.84545 20.3863 3.54545 20.3863ZM6.14545 20.3863C6.26361 20.2682 6.38183 20.1499 6.44089 19.9727C6.61817 20.15 6.67728 20.2682 6.79544 20.3863H6.14545ZM6.5 16.0727C6.38183 15.8954 6.26361 15.7773 6.14545 15.6591C6.26361 15.6591 6.38183 15.6591 6.5 15.6591C6.61817 15.6591 6.73639 15.6591 6.85455 15.6591C6.73639 15.7773 6.61817 15.8954 6.5 16.0727ZM9.45456 20.3863C8.15456 20.3863 7.09094 19.3227 7.09094 18.0227C7.09094 16.7227 8.15456 15.6591 9.45456 15.6591C10.7546 15.6591 11.8182 16.7227 11.8182 18.0227C11.8182 19.3227 10.7546 20.3863 9.45456 20.3863ZM22.4546 20.3863H12.1136C12.4091 20.0318 12.6454 19.6182 12.8227 19.2045H17.1363C17.4909 19.2045 17.7272 18.9681 17.7272 18.6136C17.7272 18.2591 17.4908 18.0227 17.1363 18.0227H13C13 16.0727 11.4046 14.4773 9.45456 14.4773C9.33639 14.4773 9.21817 14.4773 9.1 14.4773C9.69089 13.8273 10.0454 13 10.0454 12.1137H11.8182C12.1727 12.1137 12.4091 11.8773 12.4091 11.5228C12.4091 11.1682 12.1727 10.9319 11.8182 10.9319H9.39545C9.21817 10.9319 9.04089 10.991 8.92272 11.1683C8.80455 11.3455 8.74545 11.4637 8.80455 11.641C8.86366 11.8183 8.86366 11.9364 8.86366 12.1137C8.86366 13.4137 7.80005 14.4773 6.50005 14.4773C5.20005 14.4773 4.13644 13.4137 4.13644 12.1137C4.13639 10.8136 5.2 9.74999 6.5 9.74999H11.8182C12.0546 9.74999 12.2318 9.63182 12.35 9.45455C12.4682 9.27727 12.4682 9.04093 12.35 8.86366L10.6954 6.14549C10.6363 6.08638 10.6363 6.02732 10.6363 5.96821C10.6363 5.79093 10.8136 5.61366 10.9909 5.61366H11.8182C11.9954 5.61366 12.1727 5.73182 12.2909 5.85004L14.1818 8.50915C14.7136 9.27727 15.6591 9.74999 16.6046 9.74999H19.3818C20.6818 9.74999 21.7454 10.6954 21.8637 11.8773C21.8637 11.9364 21.8637 12.0545 21.8637 12.1137H17.7273C17.3727 12.1137 17.1364 12.35 17.1364 12.7045C17.1364 13.0591 17.3728 13.2954 17.7273 13.2954H21.5682C21.5091 13.4136 21.3909 13.5909 21.2727 13.7091C20.8 14.1818 20.2091 14.4772 19.5 14.4772H13.5909C13.2363 14.4772 13 14.7136 13 15.0681C13 15.4226 13.2364 15.659 13.5909 15.659H22.4545C23.0454 15.659 23.5772 15.8954 23.9909 16.2499H18.9091C18.5546 16.2499 18.3182 16.4863 18.3182 16.8408C18.3182 17.1953 18.5546 17.4317 18.9091 17.4317H24.7591C24.8182 17.6089 24.8182 17.8453 24.8182 18.0226C24.8182 19.3227 23.7546 20.3863 22.4546 20.3863Z" fill="#F26D29"/>
<path d="M20.0318 18.3773C20.0318 18.3182 19.9727 18.2591 19.9137 18.2C19.8545 18.1409 19.7955 18.0818 19.7364 18.0818C19.5 17.9637 19.2637 18.0227 19.0864 18.2C19.0273 18.2591 18.9682 18.3182 18.9682 18.3773C18.9682 18.4364 18.9091 18.4955 18.9091 18.6137C18.9091 18.7318 18.9091 18.7909 18.9682 18.8501C19.0273 18.9092 19.0273 18.9682 19.0864 19.0273C19.2045 19.1455 19.3228 19.2046 19.5 19.2046C19.6772 19.2046 19.7954 19.1455 19.9136 19.0273C19.9727 18.9682 20.0318 18.9092 20.0318 18.8501C20.0909 18.7909 20.0909 18.6728 20.0909 18.6137C20.0909 18.5547 20.0909 18.4364 20.0318 18.3773Z" fill="#F26D29"/>
<path d="M14.7136 11.2864C14.6545 11.2273 14.6545 11.1682 14.5955 11.1091C14.4182 10.9318 14.1818 10.8727 13.9455 10.9909C13.8863 10.9909 13.8273 11.0501 13.7682 11.1091C13.7091 11.1682 13.65 11.2273 13.65 11.2864C13.65 11.3455 13.5909 11.4046 13.5909 11.5228C13.5909 11.641 13.5909 11.7001 13.65 11.7592C13.65 11.8183 13.7091 11.8773 13.7682 11.9364C13.8863 12.0546 14.0046 12.1137 14.1818 12.1137C14.2409 12.1137 14.3591 12.1137 14.4182 12.0546C14.4773 11.9955 14.5364 11.9955 14.5955 11.9364C14.7137 11.8183 14.7728 11.7001 14.7728 11.5228C14.7727 11.4636 14.7727 11.3455 14.7136 11.2864Z" fill="#F26D29"/>
</svg>
