<svg width="25" height="24" viewBox="0 0 25 24" fill="none" xmlns="http://www.w3.org/2000/svg">
<path d="M11.7804 21.7355C16.6161 21.7355 19.8476 18.4693 19.8476 13.5527C19.8476 5.39311 12.8883 2 8.13334 2C7.21005 2 6.60991 2.33469 6.60991 2.96946C6.60991 3.21183 6.72532 3.47727 6.92152 3.7081C7.98331 4.97763 9.05664 6.46645 9.07973 8.28995C9.07973 8.67081 9.06818 8.99396 8.79119 9.49024L9.27593 9.40945C8.87198 8.04758 7.83327 7.06658 6.81764 7.06658C6.39063 7.06658 6.1021 7.3782 6.1021 7.83985C6.1021 8.07066 6.17134 8.62465 6.17134 9.01705C6.17134 10.9444 4.61328 12.1909 4.61328 15.4916C4.61328 19.2425 7.4755 21.7355 11.7804 21.7355ZM12.0112 19.1964C10.2915 19.1964 9.13743 18.1461 9.13743 16.5881C9.13743 14.9607 10.3031 14.3837 10.4531 13.3335C10.4647 13.2411 10.5108 13.218 10.5801 13.2757C11.0071 13.6566 11.2726 14.1183 11.4918 14.6607C11.9881 13.9913 12.2189 12.5602 12.0804 11.0714C12.0689 10.979 12.1266 10.9329 12.2074 10.9675C14.2502 11.9139 15.2889 13.9336 15.2889 15.7455C15.2889 17.5806 14.2156 19.1964 12.0112 19.1964Z" fill="white"/>
</svg>
