<svg width="25" height="24" viewBox="0 0 25 24" fill="none" xmlns="http://www.w3.org/2000/svg">
<g clip-path="url(#clip0_1_36)">
<path d="M6.46036 13.1418C6.46296 13.1941 6.45497 13.2464 6.43687 13.2955C6.41877 13.3447 6.39094 13.3896 6.35508 13.4275C6.31922 13.4654 6.27607 13.4956 6.22826 13.5162C6.18045 13.5368 6.12898 13.5474 6.07698 13.5474H1.84828C1.67522 13.5476 1.50716 13.4889 1.37143 13.3807C1.2357 13.2726 1.14028 13.1213 1.10069 12.9516C1.07604 12.8354 1.07718 12.7152 1.10402 12.5995C1.13086 12.4838 1.18274 12.3755 1.25596 12.2824C1.93248 11.3785 2.83004 10.6669 3.86103 10.2169C3.40838 9.80106 3.06121 9.28203 2.8486 8.70325C2.63598 8.12447 2.56412 7.50279 2.63902 6.89027C2.71392 6.27775 2.93341 5.69223 3.2791 5.18275C3.62479 4.67327 4.08662 4.25466 4.62591 3.96198C5.1652 3.66931 5.76624 3.51108 6.37871 3.50056C6.99117 3.49004 7.59722 3.62753 8.1461 3.90152C8.69498 4.1755 9.1707 4.57801 9.53343 5.07532C9.89616 5.57263 10.1353 6.15027 10.2309 6.75986C10.2433 6.84183 10.2287 6.92563 10.1894 6.99849C10.1501 7.07135 10.0883 7.12929 10.0133 7.1635C8.94984 7.65885 8.04915 8.45035 7.41757 9.44461C6.78599 10.4389 6.44986 11.5944 6.44886 12.7749C6.44886 12.8985 6.44886 13.0201 6.46036 13.1418ZM23.9042 12.2814C23.2293 11.3786 22.3338 10.6673 21.3049 10.2169C21.7575 9.80106 22.1047 9.28203 22.3173 8.70325C22.5299 8.12447 22.6018 7.50279 22.5269 6.89027C22.452 6.27775 22.2325 5.69223 21.8868 5.18275C21.5411 4.67327 21.0793 4.25466 20.54 3.96198C20.0007 3.66931 19.3997 3.51108 18.7872 3.50056C18.1747 3.49004 17.5687 3.62753 17.0198 3.90152C16.4709 4.1755 15.9952 4.57801 15.6325 5.07532C15.2698 5.57263 15.0306 6.15027 14.935 6.75986C14.9227 6.84183 14.9372 6.92563 14.9765 6.99849C15.0158 7.07135 15.0776 7.12929 15.1526 7.1635C16.2161 7.65885 17.1168 8.45035 17.7483 9.44461C18.3799 10.4389 18.716 11.5944 18.7171 12.7749C18.7171 12.8985 18.7171 13.0201 18.7056 13.1418C18.703 13.1941 18.7109 13.2464 18.729 13.2955C18.7471 13.3447 18.775 13.3896 18.8108 13.4275C18.8467 13.4654 18.8898 13.4956 18.9377 13.5162C18.9855 13.5368 19.0369 13.5474 19.0889 13.5474H23.3176C23.4907 13.5476 23.6588 13.4889 23.7945 13.3807C23.9302 13.2726 24.0256 13.1213 24.0652 12.9516C24.09 12.8352 24.0889 12.7147 24.0619 12.5988C24.0348 12.4829 23.9826 12.3745 23.909 12.2814H23.9042ZM15.374 16.4511C16.1374 15.862 16.6985 15.0467 16.9783 14.1198C17.2581 13.1928 17.2425 12.2009 16.9338 11.2833C16.6252 10.3657 16.0389 9.56869 15.2573 9.00417C14.4758 8.43966 13.5384 8.13607 12.5767 8.13607C11.6151 8.13607 10.6776 8.43966 9.89612 9.00417C9.1146 9.56869 8.52829 10.3657 8.21961 11.2833C7.91093 12.2009 7.8954 13.1928 8.17519 14.1198C8.45498 15.0467 9.01603 15.862 9.77948 16.4511C8.42474 17.0424 7.29351 18.0553 6.55141 19.3412C6.48411 19.4587 6.44868 19.5919 6.44868 19.7275C6.44869 19.8631 6.48414 19.9964 6.55145 20.1138C6.61877 20.2313 6.71559 20.3288 6.83218 20.3966C6.94876 20.4644 7.08101 20.5 7.21562 20.5H17.9503C18.0849 20.5 18.2171 20.4644 18.3337 20.3966C18.4503 20.3288 18.5471 20.2313 18.6145 20.1138C18.6818 19.9964 18.7172 19.8631 18.7172 19.7275C18.7172 19.5919 18.6818 19.4587 18.6145 19.3412C17.8708 18.0544 16.7375 17.0415 15.3807 16.4511H15.374Z" fill="white"/>
</g>
<defs>
<clipPath id="clip0_1_36">
<rect width="24" height="24" fill="white" transform="translate(0.75)"/>
</clipPath>
</defs>
</svg>
